<?xml version="1.0" standalone="no"?>
<!DOCTYPE svg PUBLIC "-//W3C//DTD SVG 20010904//EN"
 "http://www.w3.org/TR/2001/REC-SVG-20010904/DTD/svg10.dtd">
<svg version="1.0" xmlns="http://www.w3.org/2000/svg"
 width="1000.000000pt" height="1000.000000pt" viewBox="0 0 1000.000000 1000.000000"
 preserveAspectRatio="xMidYMid meet">

<g transform="translate(0.000000,1000.000000) scale(0.100000,-0.100000)"
fill="#000000" stroke="none">
<path d="M3869 6124 c-20 -24 -15 -92 7 -109 11 -8 38 -15 61 -15 35 0 45 5
62 29 25 35 26 43 6 81 -14 28 -20 30 -69 30 -37 0 -58 -5 -67 -16z"/>
<path d="M5940 6135 c0 -3 0 -182 -1 -397 l0 -393 71 -3 70 -3 0 401 0 400
-70 0 c-38 0 -70 -2 -70 -5z"/>
<path d="M3360 6079 c-87 -49 -125 -133 -107 -231 14 -70 59 -116 174 -177
113 -60 126 -68 141 -98 18 -33 15 -49 -19 -82 -27 -27 -37 -31 -87 -31 -53 0
-80 6 -165 36 -20 8 -42 14 -48 14 -17 0 -7 -132 11 -140 44 -22 97 -30 189
-30 91 0 108 3 158 28 80 38 113 92 113 182 0 112 -34 154 -189 232 -114 57
-131 72 -131 119 0 77 90 102 213 58 32 -11 60 -19 61 -17 2 1 11 23 20 48 10
25 20 50 23 56 2 6 -4 14 -14 17 -10 4 -36 13 -58 21 -62 24 -239 21 -285 -5z"/>
<path d="M6390 5929 c-47 -13 -98 -37 -106 -50 -7 -12 34 -99 47 -99 4 0 34 7
66 15 83 22 119 19 148 -10 28 -27 33 -70 9 -79 -9 -3 -49 -6 -89 -6 -62 0
-85 -5 -138 -31 -78 -37 -107 -80 -107 -157 0 -118 58 -172 186 -172 74 0 119
16 167 58 20 17 19 18 36 -25 13 -32 15 -33 73 -33 l59 0 -3 228 c-3 256 -10
283 -76 324 -73 46 -185 61 -272 37z m177 -375 c-6 -56 -32 -85 -91 -103 -39
-11 -47 -11 -70 4 -21 14 -26 25 -26 59 0 38 4 44 38 64 26 15 54 22 96 22
l59 0 -6 -46z"/>
<path d="M4460 5923 c-38 -7 -84 -30 -105 -53 -25 -27 -29 -26 -44 15 -13 36
-13 36 -67 33 l-54 -3 -1 -285 0 -285 75 -3 76 -3 0 179 c0 191 7 228 50 267
32 29 102 27 132 -3 22 -22 23 -31 28 -230 l5 -207 73 -3 72 -3 0 179 c0 190
7 228 49 266 31 28 104 27 133 -2 22 -22 23 -31 28 -230 l5 -207 73 -3 72 -3
0 230 c0 214 -1 233 -21 267 -38 68 -74 87 -167 88 -76 0 -122 -17 -162 -59
l-24 -26 -26 28 c-14 15 -36 33 -50 40 -29 14 -113 23 -150 16z"/>
<path d="M3860 5630 l0 -291 73 3 72 3 0 285 0 285 -72 3 -73 3 0 -291z"/>
<path d="M5234 5905 c-3 -8 -4 -113 -2 -232 4 -229 6 -239 54 -287 37 -38 62
-46 144 -46 83 0 105 7 153 50 28 24 29 25 43 6 8 -11 14 -28 14 -38 0 -15 9
-18 60 -18 l60 0 0 290 0 290 -73 0 -74 0 -6 -191 -5 -191 -30 -37 c-26 -33
-34 -36 -86 -39 -98 -5 -106 14 -106 262 l0 196 -70 0 c-53 0 -72 -4 -76 -15z"/>
</g>
</svg>
